<?xml version="1.0" encoding="UTF-8"?>
<!DOCTYPE svg PUBLIC "-//W3C//DTD SVG 1.1//EN" "http://www.w3.org/Graphics/SVG/1.1/DTD/svg11.dtd">
<!-- Creator: CorelDRAW 2017 -->
<svg xmlns="http://www.w3.org/2000/svg" xml:space="preserve" width="50mm" height="70mm" version="1.1" shape-rendering="geometricPrecision" text-rendering="geometricPrecision" image-rendering="optimizeQuality" fill-rule="evenodd" clip-rule="evenodd"
viewBox="0 0 5000 7000"
 xmlns:xlink="http://www.w3.org/1999/xlink">
 <g id="Capa_x0020_1">
  <metadata id="CorelCorpID_0Corel-Layer"/>
  <g id="Logo_Inc">
   <g id="PDAS">
    <g id="S">
     <path id="Sext" fill="#3590D6" fill-rule="nonzero" d="M4500 5773.22l0 339.88c-25.91,-7.44 -46.1,-11.31 -59.95,-11.31 -27.12,0 -50.62,9.82 -69.9,29.76 -19.59,19.64 -29.22,43.45 -29.22,71.43 0,23.81 10.54,53.87 31.93,90.48l27.42 47.02c49.71,84.82 74.41,166.67 74.41,245.83 0,115.48 -41.58,213.39 -125.03,293.45 -83.45,80.06 -185.28,120.24 -305.49,120.24 -57.84,0 -114.78,-13.39 -171.42,-39.87l0 -344.65c34.04,21.73 64.47,32.74 90.98,32.74 31.34,0 57.25,-8.93 78.33,-26.49 20.79,-17.86 31.33,-40.18 31.33,-66.96 0,-17.27 -16.57,-55.36 -50.01,-113.99 -53.32,-93.16 -80.13,-186.02 -80.13,-279.17 0,-112.21 40.36,-208.93 121.41,-289.88 80.74,-81.25 177.45,-121.73 289.82,-121.73 49.41,0 97.91,7.74 145.52,23.22z"/>
     <path id="Sint" fill="#FEFEFE" d="M4337.65 5951c-52.36,3.62 -92.12,24.63 -128.96,61.57 -42.6,42.71 -63.01,88.5 -63.01,149.04 0,64.46 22.21,125.05 53.87,180.44 36.2,63.32 76.27,138.09 76.27,212.72 0,85.92 -36.73,163.91 -102.28,219.36 -36.92,31.22 -79.96,52.99 -126.83,64.61 -20.05,4.97 -40.46,-7.33 -45.43,-27.38 -4.97,-20.05 7.33,-40.45 27.38,-45.42 35.69,-8.85 68.32,-25.3 96.45,-49.08 48.7,-41.19 75.71,-98.24 75.71,-162.09 0,-57.94 -38.21,-126.23 -66.38,-175.5 -38.3,-67 -63.76,-139.82 -63.76,-217.66 0,-80.44 28.27,-145.23 84.91,-202.01 49.69,-49.81 106.34,-78.54 176.89,-83.42 20.61,-1.42 38.57,14.22 40,34.83 1.42,20.6 -14.22,38.57 -34.83,39.99z"/>
    </g>
    <g id="A">
     <path id="Aext" fill="#3590D6" fill-rule="nonzero" d="M3300.03 6371.43l0 314.29 -103.04 0 0 283.93 -357.91 0 0 -757.45c0,-146.13 40.37,-259.82 121.42,-340.77 81.03,-80.95 194.92,-121.43 341.63,-121.43 141.6,0 246.14,36.61 313.93,110.12 67.79,73.51 101.53,186.61 101.53,339.88l0 769.65 -357.91 0 0 -746.14c0,-45.83 -5.73,-77.38 -16.87,-95.24 -11.45,-17.55 -31.64,-26.48 -60.86,-26.48 -56.64,0 -84.96,40.48 -84.96,121.72l0 147.92 103.04 0z"/>
     <path id="Aint" fill="#FEFEFE" d="M2994.56 6806.71l0 -583.2c0,-174.75 100.95,-322.15 287.39,-322.15 93.06,0 179.47,38.96 230.96,118.26l0.88 1.35c0.13,0.19 0.23,0.36 0.35,0.55l0.85 1.36c37.64,60.22 47.12,130.95 47.12,200.63l0 583.2c0,20.66 -16.84,37.5 -37.5,37.5 -20.65,0 -37.5,-16.84 -37.5,-37.5l0 -583.2c0,-54.56 -6.17,-113.61 -35.72,-160.88l-0.5 -0.81 -0.88 -1.35c-37.54,-57.82 -100.57,-84.11 -168.06,-84.11 -144.03,0 -212.39,114.26 -212.39,247.15l0 583.2c0,20.66 -16.85,37.5 -37.5,37.5 -20.66,0 -37.5,-16.84 -37.5,-37.5z"/>
    </g>
    <g id="D">
     <path id="Dext" fill="#3590D6" fill-rule="nonzero" d="M1899.11 6121.43l0 848.22 -357.91 0 0 -1191.08 466.07 0c204.56,0 364.84,45.84 480.83,137.8 137.68,110.12 206.37,259.22 206.37,447.92 0,180.35 -58.75,327.38 -176.55,441.37 -117.49,113.99 -269.03,171.13 -454.31,171.13 -21.69,0 -57.24,-1.19 -106.65,-3.57l0 -350 57.24 0c208.78,0 313.32,-86.31 313.32,-258.63 0,-162.21 -102.73,-243.16 -307.9,-243.16l-120.51 0z"/>
     <path id="Dint" fill="#FEFEFE" d="M1771.68 5996l0 810.71c0,20.66 -16.84,37.5 -37.5,37.5 -20.65,0 -37.5,-16.84 -37.5,-37.5l0 -848.21c0,-20.66 16.85,-37.5 37.5,-37.5l285.44 0c281.57,0 510.33,139.03 510.33,443.59 0,255.67 -155.29,414.57 -402.59,451.07 -20.43,3.01 -39.56,-11.2 -42.57,-31.63 -3.02,-20.43 11.19,-39.56 31.62,-42.57 210.51,-31.06 338.54,-158.7 338.54,-376.87 0,-261.73 -195.8,-368.59 -435.33,-368.59l-247.94 0z"/>
    </g>
    <g id="P">
     <path id="Pext" fill="#3590D6" fill-rule="nonzero" d="M917.57 6558.04l0 -312.5c72.3,0 108.45,-27.08 108.45,-81.55 0,-49.7 -27.71,-74.7 -83.45,-74.7 -56.34,0 -84.66,34.22 -84.66,102.38l0 777.98 -357.91 0 0 -741.37c0,-76.79 7.84,-139.59 23.5,-188.7 15.36,-49.1 42.18,-94.64 79.84,-137.2 42.48,-47.02 95.5,-84.23 159.07,-111.31 63.57,-27.38 129.25,-41.07 196.73,-41.07 122.62,0 225.66,40.78 308.81,122.02 83.45,81.25 125.03,182.15 125.03,302.39 0,116.96 -37.36,211.61 -112.08,284.22 -68.09,66.97 -171.12,100.3 -308.5,100.3l-54.83 -0.89z"/>
     <path id="Pint" fill="#FEFEFE" d="M655.48 6806.71l0 -615.04c0,-171.23 110.5,-302.81 287.09,-302.81 162.37,0 285.89,109.42 285.89,275.13 0,97.68 -42.89,182.06 -126.3,233.41 -17.59,10.83 -40.76,5.32 -51.59,-12.27 -10.83,-17.58 -5.32,-40.76 12.27,-51.59 61.21,-37.69 90.62,-97.99 90.62,-169.55 0,-124.15 -89.99,-200.13 -210.89,-200.13 -134.86,0 -212.09,98.05 -212.09,227.81l0 615.04c0,20.66 -16.84,37.5 -37.5,37.5 -20.65,0 -37.5,-16.84 -37.5,-37.5z"/>
    </g>
   </g>
   <g id="Logo_x0020_">
    <g>
     <path id="Elipse_x0020_ext_x0020_" fill="#3590D6" d="M2500 0c1380.71,0 2500,1119.29 2500,2500 0,1380.71 -1119.29,2500 -2500,2500 -1380.71,0 -2500,-1119.29 -2500,-2500 0,-1380.71 1119.29,-2500 2500,-2500z"/>
     <path id="1" fill="#3590D6" d="M2500 0c1380.71,0 2500,1119.29 2500,2500 0,1380.71 -1119.29,2500 -2500,2500 -1380.71,0 -2500,-1119.29 -2500,-2500 0,-1380.71 1119.29,-2500 2500,-2500zm1626.36 873.64c-416.2,-416.2 -991.22,-673.64 -1626.36,-673.64 -635.14,0 -1210.16,257.44 -1626.36,673.64 -416.2,416.2 -673.64,991.22 -673.64,1626.36 0,635.13 257.44,1210.16 673.64,1626.36 416.2,416.2 991.22,673.64 1626.36,673.64 635.14,0 1210.16,-257.44 1626.36,-673.64 416.2,-416.2 673.64,-991.23 673.64,-1626.36 0,-635.14 -257.44,-1210.16 -673.64,-1626.36z"/>
    </g>
    <path id="Curva_x0020_int_x0020_" fill="#FEFEFE" d="M2170.46 2266.28l0 -912.31c0,-35.92 28.99,-65.21 64.52,-65.21 35.54,0 64.52,29.29 64.52,65.21l0 977.52c0,35.93 -28.98,65.22 -64.52,65.22l-793.11 0c-559.19,0 -568.15,1189.09 0,1189.09l494.81 0c35.53,0 64.51,29.3 64.51,65.22 0,35.92 -28.98,65.22 -64.51,65.22l-494.81 0c-739.47,0 -730.51,-1449.96 0,-1449.96l728.59 0zm362.84 1733.71c-35.54,0 -64.52,-29.29 -64.52,-65.21l0 -2804.34 -467.59 0 0 912.3c0,35.93 -28.98,65.22 -64.52,65.22l-494.81 0c-242.17,0 -456.91,91.58 -610.3,283.49 -122.27,152.96 -187.99,349.01 -200.37,544.05 -13.34,210.41 34.81,431.01 154.28,605.9 153.77,225.09 390.16,326.25 656.5,326.73l728.49 1.32 0 -1183.99 -600.7 0c-57.88,0 -110.28,17.3 -151.97,58.8 -150.42,149.66 -90.47,558.81 151.97,558.81l302.39 0 0 -402.41c0,-35.92 28.99,-65.22 64.52,-65.22 35.54,0 64.52,29.3 64.52,65.22l0 467.63c0,35.92 -28.98,65.21 -64.52,65.21l-366.91 0c-65.09,0 -126.64,-18.33 -180.64,-55.21 -114.77,-78.37 -172.22,-223.17 -181.51,-358.73 -15.99,-233.27 107.09,-464.53 362.15,-464.53l665.22 0c35.54,0 64.52,29.29 64.52,65.21l0 1314.54c0,17.98 -6.35,33.45 -18.94,46.16 -12.59,12.69 -27.91,19.09 -45.69,19.05l-793.12 -1.43c-308.9,-0.56 -584.48,-122.52 -762.46,-383.04 -136.06,-199.17 -192.07,-448.52 -176.86,-688.37 14.08,-222.08 89.65,-443.63 228.76,-617.68 177.95,-222.62 429.44,-331.94 710.67,-331.94l430.29 0 0 -912.31c0,-35.92 28.99,-65.21 64.52,-65.21l596.63 0c35.53,0 64.51,29.29 64.51,65.21l0 2804.34 467.59 0 0 -912.3c0,-35.93 28.98,-65.22 64.52,-65.22l494.81 0c214.9,0 408.95,-72.51 549.66,-240.68 160.51,-191.83 214.18,-463.4 191.67,-708.71 -38,-414.04 -293.75,-809.97 -741.44,-810.78l-728.49 -1.32 0 1183.99 600.7 0c57.88,0 110.28,-17.3 151.98,-58.8 150.41,-149.67 90.46,-558.81 -151.98,-558.81l-302.39 0 0 402.41c0,35.92 -28.98,65.22 -64.52,65.22 -35.54,0 -64.52,-29.3 -64.52,-65.22l0 -467.63c0,-35.92 28.98,-65.21 64.52,-65.21l366.91 0c65.09,0 126.64,18.33 180.64,55.21 114.77,78.37 172.22,223.16 181.52,358.72 15.99,233.28 -107.1,464.54 -362.16,464.54l-665.22 0c-35.54,0 -64.52,-29.29 -64.52,-65.21l0 -1314.54c0,-17.98 6.35,-33.45 18.94,-46.16 12.59,-12.69 27.91,-19.09 45.69,-19.05l793.13 1.43c187.39,0.34 360.83,59.85 506.23,179.93 219.48,181.27 337.73,468.83 363.46,749.23 25.77,280.77 -38.33,585.93 -221.63,805 -165.41,197.68 -395.09,286.87 -648.18,286.87l-430.29 0 0 912.31c0,35.92 -28.98,65.21 -64.52,65.21l-596.62 0zm362.83 -1266.27l0 912.31c0,35.92 -28.98,65.21 -64.52,65.21 -35.54,0 -64.52,-29.29 -64.52,-65.21l0 -977.52c0,-35.93 28.98,-65.22 64.52,-65.22l793.11 0c559.19,0 568.15,-1189.09 0,-1189.09l-494.8 0c-35.54,0 -64.52,-29.3 -64.52,-65.22 0,-35.92 28.98,-65.22 64.52,-65.22l494.8 0c739.47,0 730.51,1449.96 0,1449.96l-728.59 0z"/>
   </g>
  </g>
 </g>
</svg>
